<svg width="46" height="37" viewBox="0 0 46 37" fill="none" xmlns="http://www.w3.org/2000/svg">
<path d="M24.7 31.4502C22.2 34.7502 18.7167 36.4002 14.25 36.4002C9.78333 36.4002 6.28333 34.7502 3.75 31.4502C1.25 28.1169 5.96046e-08 23.7002 5.96046e-08 18.2002C5.96046e-08 12.7002 1.25 8.30019 3.75 5.00019C6.28333 1.66686 9.78333 0.000193 14.25 0.000193C18.7167 0.000193 22.2 1.66686 24.7 5.00019C27.2333 8.30019 28.5 12.7002 28.5 18.2002C28.5 23.7002 27.2333 28.1169 24.7 31.4502ZM8 18.2002C8 25.1335 10.0833 28.6002 14.25 28.6002C18.4167 28.6002 20.5 25.1335 20.5 18.2002C20.5 11.2669 18.4167 7.80019 14.25 7.80019C10.0833 7.80019 8 11.2669 8 18.2002ZM38.6676 0.700193H45.6676V35.7002H37.6676V9.15019L31.4676 10.8502L29.5176 4.0002L38.6676 0.700193Z" fill="#202A5B" fill-opacity="0.3"/>
</svg>
