<svg width="82" height="82" viewBox="0 0 82 82" fill="none" xmlns="http://www.w3.org/2000/svg">
<rect width="82" height="82" rx="12" fill="#EDF0FF"/>
<path d="M41 67C55.3594 67 67 55.3594 67 41C67 26.6406 55.3594 15 41 15C26.6406 15 15 26.6406 15 41C15 55.3594 26.6406 67 41 67Z" stroke="#202B57" stroke-width="0.716338" stroke-miterlimit="10"/>
<path d="M45.7571 43.6392C45.7571 43.6392 45.5278 43.6679 45.4131 43.6966C44.5818 43.8399 43.8365 43.3526 43.6358 42.5213C43.5785 42.2919 43.5498 42.0626 43.5498 41.8333C43.5498 41.6613 43.4925 41.5466 43.3778 41.4606C42.9479 41.1166 42.5752 40.6866 42.2599 40.228C42.1165 39.9987 41.9732 39.884 41.6866 39.97C41.2279 40.1133 40.7406 40.0273 40.2819 39.8553C39.6226 39.626 38.9633 39.4253 38.3326 39.1674C38.046 39.0527 37.7593 39.024 37.4727 39.0814C37.272 39.0814 37.0713 39.1387 36.8707 39.1387C35.896 39.0814 34.8927 39.0527 33.9468 38.8234C33.8321 38.7947 33.6601 38.8234 33.5454 38.852C33.2301 38.9954 32.9148 39.0527 32.5995 39.0527C32.3128 39.0527 32.0835 39.1674 31.8828 39.3393C31.7681 39.454 31.7395 39.54 31.7968 39.712C31.9115 39.9987 31.9975 40.2853 32.1121 40.5433C32.1408 40.6293 32.2268 40.744 32.3128 40.8013C32.4561 40.8873 32.6281 40.916 32.8001 40.9733C33.1154 41.088 33.2014 41.26 33.1154 41.5753C33.0581 41.7186 33.0008 41.862 32.9721 42.0339C32.9148 42.2919 32.9721 42.3779 33.2301 42.4639C33.6314 42.5499 33.6888 42.6359 33.7174 43.0372C33.7174 43.3526 33.7748 43.4099 34.0614 43.4386C34.7207 43.5246 35.1794 44.0406 35.2081 44.7285V44.7859C35.2081 45.1299 35.3514 45.3592 35.638 45.5312C36.1827 45.8465 36.2974 46.0472 36.1827 46.6778C36.0967 47.2225 35.9534 47.7385 35.6954 48.2258C35.5807 48.4551 35.4374 48.6558 35.2654 48.8564C34.9501 49.2004 34.6634 49.2578 34.2621 49.0284C33.9754 48.8851 33.6601 48.7991 33.3448 48.8278C32.5135 48.9424 31.8828 48.5124 31.2522 48.0825C31.0228 47.9105 30.9368 47.6525 30.9082 47.3945C30.9082 47.1651 30.7935 47.0505 30.5928 46.9358C30.3635 46.8212 30.2202 46.5918 30.0195 46.4485C29.9335 46.3625 29.8189 46.2765 29.7042 46.2478C29.2742 46.1332 29.1022 45.8465 29.0449 45.4452C29.0449 45.3305 28.9875 45.1872 28.9016 45.1012C28.4142 44.7285 28.3569 44.2412 28.3856 43.6679C28.3856 43.6106 28.3856 43.5532 28.3856 43.4959C27.7262 43.2666 27.7262 42.7219 27.7262 42.1773C27.7262 41.9766 27.6976 41.8906 27.4969 41.8333C27.0096 41.6613 26.7803 41.346 26.7803 40.83C26.7803 40.5433 26.8089 40.228 26.8949 39.9413C27.0383 39.454 27.2389 38.938 27.4396 38.4794C27.6403 38.0494 27.9269 37.6767 28.2422 37.3327C28.4716 37.1034 28.7009 36.8167 28.9016 36.5588C29.1022 36.3294 29.3029 36.0714 29.5322 35.8708C29.8475 35.5841 30.0482 35.6414 30.3062 35.9854C30.5355 35.7561 30.7935 35.5554 31.0228 35.2975C31.4815 34.8101 31.9975 34.4661 32.6281 34.3228C33.2301 34.1795 33.5741 34.3228 33.8321 34.9248C33.9181 35.0968 34.0041 35.1541 34.1761 35.1541C34.4627 35.1541 34.7207 35.1255 34.9501 34.9248C35.3514 34.6381 35.7814 34.4661 36.24 34.3515C37.0713 34.1221 38.1893 34.5808 38.562 35.3835C38.6193 35.5268 38.734 35.5841 38.906 35.6414C39.3933 35.7561 39.8233 35.6988 40.2246 35.4121C40.7979 35.0108 41.5432 35.1255 42.0306 35.6988C42.2312 35.9281 42.3745 36.1861 42.5465 36.4441C42.8045 36.9027 42.9765 36.9887 43.4925 36.8454C43.8365 36.7594 44.1805 36.6161 44.5245 36.5301C44.7825 36.4728 45.0405 36.3868 45.2985 36.3581C45.6998 36.3294 45.9864 36.5301 46.1871 36.8454C46.3878 37.1894 46.5598 37.5621 46.5598 37.9921C46.5598 38.1067 46.5884 38.25 46.6171 38.3647C46.7031 38.766 46.9898 38.9954 47.4197 38.9094C47.5057 38.9094 47.5917 38.852 47.7064 38.852C48.0791 38.7947 48.4231 38.9954 48.5377 39.368C48.5951 39.5973 48.6524 39.8267 48.681 40.056C48.767 40.658 49.1397 40.9446 49.713 40.8013C50.143 40.7153 50.487 40.8873 50.659 41.2886C50.745 41.5466 50.8023 41.8046 50.831 42.0626C50.8883 42.4066 50.9457 42.7219 51.3183 42.8939C51.4616 42.9513 51.5763 42.9513 51.7196 42.8939C52.3789 42.5213 52.8663 42.7219 53.1243 43.4386C53.2963 43.8972 53.3249 44.3846 53.2963 44.8719C53.2963 44.9579 53.2963 45.0152 53.2676 45.1012C53.2676 45.4739 53.4109 45.6459 53.7836 45.6172C53.9842 45.6172 54.1849 45.6172 54.3856 45.6172C54.8442 45.6172 55.1595 45.9612 55.1882 46.4198C55.2169 47.4231 55.0449 48.3691 54.6149 49.2578C54.3282 49.8884 53.9269 50.0604 53.2963 49.8024C52.9809 49.6877 52.6656 49.7164 52.3503 49.8024C51.4903 50.0317 50.7737 49.7164 50.1143 49.2291C49.799 48.9998 49.5984 48.6271 49.541 48.2258C49.4837 47.9965 49.3977 47.8531 49.1397 47.7958C48.767 47.7098 48.5091 47.4518 48.3657 47.1078C48.3084 46.9931 48.2224 46.8785 48.1077 46.7925C47.7351 46.5345 47.4771 46.1905 47.3624 45.7605C47.3051 45.5885 47.2191 45.4739 47.0184 45.4739C46.4164 45.4739 46.0724 45.1872 45.9004 44.5852C45.8145 44.2986 45.7858 44.0119 45.7285 43.6679L45.7571 43.6392ZM46.5311 39.712C46.7031 39.54 46.9038 39.368 47.0758 39.196C46.9038 39.0814 46.7604 39.024 46.5884 38.9094C46.5884 39.196 46.5598 39.454 46.5311 39.712ZM28.0989 37.9921C28.0989 37.9921 28.0416 37.9921 28.0129 37.9634C27.4969 38.8234 27.0383 39.7407 26.9809 40.7726C26.9523 41.346 27.2963 41.6326 27.8409 41.6326C27.9842 41.6326 28.1562 41.6326 28.2996 41.5466C28.8156 41.3173 29.3889 41.2313 29.9335 41.174C30.4208 41.1166 30.8795 40.9733 31.2808 40.6293C31.3668 40.572 31.4528 40.5146 31.5388 40.4573C31.6248 40.7153 31.4815 40.8013 31.3668 40.8873C30.9942 41.174 30.5642 41.3173 30.1055 41.4033C29.5322 41.4893 28.9589 41.5466 28.4142 41.776C27.8696 41.9766 27.8409 42.0053 27.9269 42.5786C27.9269 42.6359 27.9556 42.6933 27.9556 42.7793C27.9842 43.0086 28.0989 43.1806 28.3569 43.1806C28.5576 43.1806 28.5862 43.3239 28.5576 43.4959C28.5289 43.6966 28.5289 43.8686 28.5576 44.0692C28.5862 44.4132 28.6722 44.7285 29.0449 44.9005C29.1309 44.9292 29.1882 45.0439 29.2169 45.1585C29.2455 45.2445 29.2169 45.3592 29.2455 45.4452C29.2742 45.7605 29.4175 45.9038 29.7042 45.9612C29.8762 45.9898 30.0195 46.0758 30.1055 46.2478C30.2489 46.4772 30.4495 46.7065 30.7362 46.7925C30.9655 46.8498 31.0515 46.9932 31.0515 47.2225C31.0515 47.6525 31.2808 47.9678 31.6822 48.1398C31.8255 48.1971 31.9401 48.2831 32.0548 48.3691C32.4561 48.6558 32.8861 48.6271 33.2874 48.5698C33.1728 48.2258 33.0581 47.9391 32.9721 47.6525C32.8288 47.1651 32.5135 46.9072 32.0261 46.9645C31.9401 46.9645 31.8541 47.0218 31.7395 47.0218C31.5961 47.0505 31.4528 47.1078 31.3095 47.1078C31.2235 47.1078 31.1375 47.0505 31.0515 47.0218C31.0515 46.9932 31.0515 46.9645 31.0515 46.9358C31.2808 46.8785 31.5102 46.8212 31.6822 46.7638C31.4815 46.3912 31.3095 46.0472 31.1375 45.7032C31.1088 45.6459 31.0228 45.5885 30.9655 45.5312C30.8508 45.4165 30.7075 45.3305 30.6215 45.2159C30.4782 45.0152 30.3635 45.0152 30.1629 45.1012C30.0195 45.1585 29.8475 45.1872 29.6755 45.2159C29.6182 45.2159 29.5322 45.1585 29.4462 45.1299V45.0152C29.6182 44.9579 29.8189 44.9292 29.9909 44.8719C30.4495 44.7572 30.5355 44.6139 30.4495 44.1266C30.3635 43.7826 30.1629 43.5246 29.9622 43.2379C29.7615 42.9513 29.7615 42.9513 29.4749 43.0659C29.4175 43.0659 29.3315 43.0659 29.2455 43.0659C29.2742 43.0086 29.3029 42.8939 29.3602 42.8653C29.5035 42.8079 29.6755 42.7506 29.8475 42.6933C29.8475 42.2633 29.4175 42.0913 29.2742 41.7473C29.3889 41.7473 29.5035 41.7473 29.5609 41.8333C29.8189 42.0339 29.9909 42.2919 30.0769 42.6073C30.1342 42.8079 30.1915 43.0373 30.2775 43.2092C30.4782 43.5819 30.8795 43.7539 31.2808 43.5819C31.5102 43.4672 31.7395 43.3239 31.9401 43.1232C32.3415 42.7219 32.5995 42.2059 32.7715 41.6613C32.8861 41.346 32.8575 41.3173 32.5421 41.2313C32.3701 41.174 32.1695 41.1166 32.0261 41.002C31.9401 40.9446 31.8541 40.83 31.8255 40.744C31.7108 40.4287 31.5962 40.0847 31.4815 39.7407C31.4242 39.5687 31.4242 39.4253 31.5388 39.282C31.5961 39.2247 31.6248 39.1674 31.7108 39.0814C31.5675 39.0814 31.4528 39.0814 31.3382 39.11C31.0515 39.1387 30.7362 39.1673 30.4495 39.2247C30.1915 39.282 29.9335 39.3393 29.7042 39.454C29.4749 39.5687 29.2742 39.7407 29.0449 39.884C28.8729 39.97 28.7009 40.0847 28.5289 40.1133C28.1276 40.228 27.8409 39.9987 27.8409 39.5973C27.8409 39.3967 27.8409 39.1674 27.8696 38.9667C27.9269 38.6514 28.0129 38.336 28.0702 37.9921H28.0989ZM36.6414 38.852H37.272C37.272 38.852 37.3007 38.852 37.3293 38.852C37.702 38.852 37.7593 38.766 37.8167 38.3934C37.874 37.9347 38.046 37.5047 38.2753 37.1034C38.82 36.1861 38.476 34.5808 36.7847 34.5808C35.8387 34.5808 35.0361 35.0108 34.4914 35.7848C34.2907 36.0714 34.0901 36.3868 33.8894 36.7021C33.6888 37.0461 33.5168 37.4187 33.4881 37.8487C33.4881 38.3074 33.6028 38.508 34.0614 38.594C34.9214 38.766 35.7814 38.8807 36.6414 38.852ZM33.2588 47.5951C33.2588 47.8531 33.3448 48.1111 33.5168 48.2545C33.7748 48.4551 34.0328 48.6558 34.3194 48.7991C34.6347 48.9711 34.8641 48.8851 35.0647 48.5984C35.1794 48.4264 35.2941 48.2544 35.4087 48.0538C35.6667 47.5378 35.7814 46.9931 35.896 46.4198C35.9534 46.1332 35.8387 45.9612 35.638 45.8178C35.552 45.7605 35.4374 45.7318 35.3514 45.6745C35.0647 45.5025 34.8641 45.2732 34.8927 44.9292C34.8927 44.5279 34.7781 44.2126 34.5487 43.9259C34.4341 43.7826 34.2908 43.6966 34.0901 43.6679C33.5454 43.6106 33.4308 43.4959 33.4021 42.9513C33.4021 42.7793 33.3161 42.6646 33.1441 42.6359C33.0008 42.6073 32.8288 42.5499 32.6855 42.5213C32.2268 43.2379 31.7108 43.9259 30.7648 43.8112C30.7648 44.0692 30.7648 44.2986 30.7648 44.5279C30.7362 44.7859 30.8222 44.9865 31.0228 45.1299C31.3095 45.3305 31.6821 45.3879 31.9688 45.1585C32.1981 44.9865 32.3988 44.7859 32.5708 44.5565C32.8001 44.2126 32.9721 43.8399 33.1728 43.4959C33.2014 43.4386 33.2874 43.4386 33.3734 43.3812C33.3734 43.4386 33.4021 43.5246 33.3734 43.5819C33.2301 43.8972 33.0868 44.2126 32.9148 44.4992C32.5995 45.0152 32.1981 45.4452 31.5675 45.5885C31.5675 45.5885 31.5675 45.6172 31.5388 45.6459C31.6248 46.1905 32.0548 46.5918 32.5708 46.6492C32.7428 46.6492 32.8288 46.7352 32.9148 46.8785C33.2014 47.3371 33.7748 47.3945 34.0901 46.9358C34.2621 46.7065 34.3767 46.4198 34.4914 46.1618C34.5774 45.9325 34.6347 45.7032 34.7207 45.4452C34.7207 45.3879 34.8067 45.3592 34.8641 45.3019C34.8927 45.3592 34.9501 45.4452 34.9501 45.5025C34.8641 45.8178 34.7781 46.1332 34.6634 46.4485C34.4341 47.0791 34.0614 47.5091 33.3448 47.5091C33.3448 47.5091 33.3448 47.5091 33.2874 47.5378L33.2588 47.5951ZM46.4451 38.3074C46.3878 37.8487 46.2731 37.3901 46.0724 37.0461C45.8718 36.7307 45.5278 36.4728 45.0978 36.6161C44.6105 36.7594 44.1232 36.8741 43.6358 37.0747C43.2058 37.2467 42.8905 37.5907 42.7185 38.0494C42.5179 38.5367 42.4032 39.0814 42.2599 39.5687C42.2025 39.712 42.2599 39.798 42.3172 39.9127C42.5179 40.142 42.6899 40.3713 42.8619 40.6293C43.3205 41.2313 43.9225 41.5753 44.6678 41.604C45.4991 41.6613 45.6425 41.4893 45.9291 40.8873C45.9865 40.7726 46.0438 40.6293 46.0724 40.486C46.1871 39.7693 46.3304 39.024 46.4451 38.3074ZM50.3723 45.0152C50.6877 45.0152 50.9743 45.1872 51.2036 45.4739C51.261 45.5599 51.3756 45.5885 51.4616 45.6459C51.777 45.7892 51.949 46.0185 52.035 46.3625C52.0636 46.5058 52.1783 46.6205 52.2356 46.7352C52.2929 46.8498 52.3503 46.9645 52.379 47.0792C52.379 47.1078 52.3216 47.1938 52.293 47.2225C52.2643 47.2225 52.1783 47.1651 52.1496 47.1365C52.0636 47.0218 51.9776 46.9358 51.9203 46.8212C51.863 46.7352 51.8056 46.6492 51.8056 46.5632C51.777 46.2192 51.5763 46.0185 51.2896 45.8465C50.917 45.6459 50.6303 45.2732 50.2003 45.1585C50.2003 45.1585 50.143 45.1585 50.143 45.1299C49.7703 45.3592 49.369 45.4452 49.025 45.2445C48.6524 45.0152 48.3371 45.0152 47.9931 45.2445C47.9644 45.2445 47.9071 45.2732 47.8784 45.3019C47.6204 45.4165 47.5631 45.4739 47.6777 45.7605C47.7924 46.1045 48.0217 46.3338 48.3084 46.5632C48.4517 46.6778 48.595 46.8212 48.6524 46.9932C48.767 47.2798 48.9677 47.4518 49.2257 47.5378C49.6557 47.6811 50.0857 47.6811 50.4583 47.4518C50.8597 47.2511 51.2323 47.1365 51.6623 47.3658C51.7196 47.3658 51.777 47.3658 51.8056 47.3945C52.2356 47.4805 52.3503 47.4231 52.5509 47.0218C52.5509 46.9645 52.6083 46.9358 52.6083 46.8785C52.9523 45.9612 53.1243 45.0152 53.0383 44.0406C53.0383 43.6966 52.9236 43.3526 52.6656 43.1232C52.4076 42.8653 52.2356 42.8653 51.9203 43.0372C51.6623 43.2092 51.4043 43.3812 51.175 43.5819C51.003 43.7252 50.831 43.8972 50.7163 44.0979C50.573 44.3846 50.4583 44.6712 50.3437 44.9865L50.3723 45.0152ZM42.5179 37.2754C42.6039 36.6161 42.2025 36.1288 41.7152 35.7274C41.3139 35.3834 40.8839 35.4121 40.4253 35.6414C40.1673 35.7848 39.9379 35.9281 39.6799 36.0714C38.8486 36.6161 38.304 37.3614 38.1033 38.336C38.0173 38.766 38.046 38.852 38.476 38.9954C39.078 39.196 39.6513 39.3967 40.2533 39.626C40.7119 39.798 41.1706 39.798 41.6579 39.7407C41.8872 39.712 41.9732 39.5973 42.0592 39.3967C42.3459 38.7374 42.4892 38.0494 42.4892 37.2754H42.5179ZM33.4308 38.6514C33.1728 37.992 33.1728 37.8487 33.4021 37.2467C33.4594 37.0461 33.5454 36.8741 33.6601 36.7021C34.0901 36.0428 33.8894 35.4408 33.5454 34.8388C33.4308 34.6381 33.2301 34.5235 32.9721 34.5808C32.4561 34.6381 31.9975 34.8101 31.6248 35.1828C31.2235 35.6128 30.8508 36.0428 30.4782 36.5301C30.2489 36.8167 30.1055 37.1607 29.9335 37.4761C29.7615 37.8201 29.7329 38.1927 29.7902 38.5654C29.8475 38.9094 30.0482 39.0527 30.3348 39.024C31.1375 38.9667 31.9115 38.9094 32.7141 38.8234C32.9434 38.8234 33.1728 38.7374 33.4021 38.68L33.4308 38.6514ZM45.5851 41.776C45.7858 42.1199 45.9578 42.4066 46.1298 42.7219C46.3018 43.0086 46.5598 43.2092 46.8751 43.2952C47.1044 43.3526 47.3338 43.3526 47.5631 43.3812C47.7924 43.3812 47.9644 43.2952 48.0791 43.0946C48.1364 42.9799 48.2224 42.8366 48.2511 42.7219C48.3371 42.2633 48.4231 41.776 48.4804 41.3173C48.5377 40.7153 48.5377 40.1133 48.3657 39.54C48.2511 39.196 47.9071 38.9954 47.5917 39.196C47.0184 39.5687 46.4738 40.0273 46.2731 40.744C46.1298 41.174 45.9578 41.5753 45.5851 41.8046V41.776ZM47.8784 43.6106C48.1364 44.1552 48.4804 44.6139 48.9677 44.9292C49.369 45.1872 50.1717 45.1299 50.3437 44.4705C50.4583 44.0692 50.573 43.6392 50.6303 43.2379C50.7163 42.6646 50.6877 42.0913 50.5157 41.518C50.3723 41.0306 49.9137 40.916 49.541 41.2313C49.3404 41.3746 49.1684 41.5466 48.9964 41.7186C48.767 41.9479 48.5951 42.2346 48.5377 42.5786C48.4517 43.0086 48.2797 43.3526 47.8784 43.6106ZM49.7703 47.9678C49.7703 47.9678 49.7703 48.1685 49.8277 48.2545C49.971 48.7131 50.2577 49.0284 50.6877 49.2578C51.2323 49.5731 51.7483 49.6591 52.3216 49.5158C52.7516 49.4011 53.1816 49.4298 53.6116 49.6018C53.8122 49.6877 54.0129 49.6017 54.1276 49.4871C54.0702 49.0858 53.8123 48.8851 53.5543 48.6844C53.2389 48.4264 52.8663 48.1685 52.6656 47.7958C52.6083 47.6811 52.465 47.5951 52.3216 47.7098C52.2643 47.7385 52.1496 47.7385 52.0636 47.7098C51.8056 47.6525 51.5763 47.5951 51.3183 47.5378C51.175 47.5378 51.0317 47.5378 50.8883 47.5378C50.5157 47.6525 50.1717 47.7958 49.7703 47.9391V47.9678ZM54.3282 49.2864C54.4142 49.1144 54.5002 48.9711 54.5576 48.7991C54.8156 48.0538 54.9875 47.2798 54.9589 46.4772C54.9589 46.1332 54.8442 45.9612 54.5576 45.8752C53.9842 45.6745 53.2963 45.9898 53.0383 46.5632C52.9236 46.8498 52.8089 47.1365 52.6943 47.4231C52.9809 47.9678 53.4683 48.3118 53.9269 48.6844C54.1276 48.8564 54.2709 48.9998 54.3282 49.2864ZM29.9622 35.8994C29.8189 36.0141 29.6755 36.1288 29.5609 36.2434C29.3889 36.4154 29.2169 36.6448 29.0736 36.8167C28.5002 37.5047 28.2709 38.3074 28.1562 39.1674C28.1562 39.3107 28.1562 39.454 28.1562 39.626C28.1562 39.8267 28.2996 39.9127 28.5002 39.884C28.5862 39.884 28.6722 39.8553 28.7296 39.798C29.0735 39.5687 29.4175 39.3393 29.7615 39.11C29.1595 38.0494 29.7329 37.2181 30.2202 36.3294C29.9622 36.3294 30.0482 36.1001 29.9335 35.8994H29.9622ZM46.1871 43.2666C46.0151 42.9226 45.8718 42.6073 45.6998 42.3493C45.5565 42.1486 45.3558 41.9193 45.1551 41.8619C44.7252 41.7473 44.2952 41.776 43.8652 41.7473C43.8652 41.9193 43.8652 42.0913 43.8652 42.2919C43.9512 42.8366 44.3525 43.3526 44.7825 43.4099C45.2698 43.4959 45.7571 43.4386 46.2158 43.2952L46.1871 43.2666ZM48.337 44.7572C48.1077 44.3845 47.8784 44.0406 47.6777 43.7252C47.6491 43.6679 47.5917 43.6392 47.5344 43.6392C47.2477 43.5819 46.9324 43.5246 46.6458 43.4672C46.3304 43.4099 46.1011 43.5819 46.1298 43.9259C46.1298 44.0406 46.1298 44.1266 46.1298 44.2412C46.2158 44.8719 46.6458 45.2732 47.1904 45.2159C47.6204 45.1872 48.0217 45.0152 48.3657 44.7859L48.337 44.7572ZM48.7097 41.518C48.7097 41.518 48.767 41.518 48.7957 41.518C48.939 41.346 49.0824 41.2026 49.2257 41.0306C49.0824 40.9446 48.939 40.8586 48.767 40.7726C48.767 41.0306 48.7384 41.26 48.7097 41.4893V41.518ZM38.7913 36.3868C38.9633 36.2148 39.1066 36.0714 39.25 35.9281C39.078 35.9281 38.9346 35.8708 38.7913 35.8421V36.3868ZM50.917 42.8939C50.917 43.1233 50.917 43.2666 50.8883 43.5246C51.0603 43.3812 51.2037 43.2666 51.347 43.1519C51.2037 43.0659 51.089 43.0086 50.9457 42.8939H50.917ZM34.0614 35.4121C34.0901 35.5554 34.1188 35.6701 34.1761 35.8134C34.2907 35.6701 34.3481 35.5554 34.4341 35.4121H34.0614ZM42.8332 37.0461V37.3901C42.8332 37.3901 43.0052 37.2181 43.0912 37.1321C43.0052 37.1034 42.9192 37.0747 42.8332 37.0461Z" fill="#202B57"/>
<path d="M43.8017 36.816C43.8017 35.5547 44.805 34.5228 46.0663 34.5228C44.805 34.5228 43.8017 33.4908 43.8017 32.2295C43.8017 33.4908 42.7984 34.5228 41.5371 34.5228C42.7984 34.5228 43.8017 35.5547 43.8017 36.816Z" fill="#202B57"/>
<path d="M41.1125 34.6085C41.1125 33.9206 41.6572 33.3472 42.3452 33.3472C41.6572 33.3472 41.1125 32.8026 41.1125 32.0859C41.1125 32.7739 40.5679 33.3472 39.8799 33.3472C40.5679 33.3472 41.1125 33.8919 41.1125 34.6085Z" fill="#202B57"/>
<path d="M46.7851 48.3114C46.7851 47.5947 47.3584 47.0214 48.0751 47.0214C47.3584 47.0214 46.7851 46.4481 46.7851 45.7314C46.7851 46.4481 46.2118 47.0214 45.4951 47.0214C46.2118 47.0214 46.7851 47.5947 46.7851 48.3114Z" fill="#202B57"/>
</svg>
