<svg width="82" height="82" viewBox="0 0 82 82" fill="none" xmlns="http://www.w3.org/2000/svg">
<rect width="82" height="82" rx="12" fill="#EDF0FF"/>
<path d="M39.3997 55.2182C39.2851 55.0462 39.1417 54.8742 39.0557 54.6735C38.7977 54.0429 38.5398 53.4122 38.2818 52.7816C38.2244 52.6096 38.1384 52.5236 37.9378 52.5236C37.5364 52.4949 37.1065 52.4376 36.6765 52.3802C36.7051 52.0649 36.7338 51.7782 36.7911 51.4342C37.2498 51.4916 37.6798 51.5202 38.1671 51.5776C38.1671 50.9756 38.1671 50.4023 38.1671 49.8003C38.1671 49.743 38.0238 49.6856 37.9378 49.657C37.5364 49.5996 37.1351 49.571 36.7051 49.5136C36.7338 49.1983 36.7625 48.9116 36.8198 48.5677C37.2785 48.625 37.7084 48.6537 38.1958 48.711V47.5644C38.1958 46.819 38.1958 46.819 37.4218 46.733C37.1925 46.733 36.9631 46.6757 36.7051 46.647C36.7338 46.3317 36.7625 46.0164 36.8198 45.7011C37.2785 45.7584 37.7084 45.7871 38.1671 45.8444V43.9811C37.6798 43.9238 37.2211 43.8664 36.7051 43.8091C36.7338 43.4938 36.7911 43.1785 36.8198 42.8631C37.2785 42.9205 37.7084 42.9491 38.1671 43.0065V41.9172C37.7371 41.9172 37.3071 41.9172 36.8771 41.9172C36.4471 41.9172 36.2751 41.7452 36.2751 41.3152C36.2751 40.6845 36.2751 40.0252 36.2751 39.3946V39.0792C35.8165 39.0792 35.3578 39.0792 34.9278 39.0792C34.6412 39.0792 34.4405 38.9646 34.3832 38.6779C34.0392 37.3306 33.4945 36.0693 33.0646 34.7793C32.6059 33.432 32.4052 32.0561 32.5199 30.6228C32.6919 28.7308 34.3259 27.0395 36.2178 26.8102C37.0205 26.6955 37.7944 26.7815 38.5684 27.0969C39.7151 27.5555 40.919 27.7562 42.1517 27.4982C42.639 27.3835 43.0976 27.2402 43.5563 27.0682C46.2222 26.0936 49.0028 27.6415 49.5188 30.4508C49.6621 31.2534 49.5761 32.0561 49.4615 32.8587C49.2895 34.0914 48.8881 35.2667 48.4008 36.4133C48.1142 37.1013 47.9422 37.8753 47.7129 38.5919C47.5982 39.0219 47.4835 39.1079 47.0535 39.1079C46.6522 39.1079 46.2509 39.1079 45.7922 39.1079V40.3119C45.7922 40.6559 45.7922 40.9998 45.7922 41.3438C45.7922 41.7738 45.6202 41.9458 45.1902 41.9458C44.7603 41.9458 44.3589 41.9458 43.9289 41.9458V43.6658C44.3876 43.7231 44.8749 43.7804 45.3909 43.8378C45.3622 44.1531 45.3336 44.4398 45.2762 44.7838C44.8176 44.7264 44.3876 44.6978 43.9003 44.6404C43.9003 45.2424 43.9003 45.8157 43.9003 46.389C43.9003 46.4464 44.0436 46.5324 44.1296 46.5324C44.5309 46.5897 44.9323 46.6184 45.3622 46.6757C45.3336 46.991 45.3049 47.2777 45.2476 47.6217C44.7889 47.5643 44.3589 47.5357 43.8716 47.4783C43.8716 48.0803 43.8716 48.6537 43.8716 49.227C43.8716 49.2843 44.0149 49.3416 44.1009 49.3703C44.5023 49.4276 44.9323 49.4563 45.3622 49.5136C45.3336 49.8289 45.2762 50.1443 45.2476 50.4596C44.7889 50.4023 44.3589 50.3736 43.9003 50.3163V52.1796C44.3876 52.2369 44.8463 52.2942 45.3622 52.3516C45.3336 52.6669 45.3049 52.9822 45.2476 53.2975C44.8176 53.2402 44.3876 53.2115 43.9863 53.1542C43.7283 53.0969 43.5563 53.1542 43.4703 53.4409C43.327 53.8422 43.155 54.2435 42.983 54.6448C42.897 54.8455 42.7536 55.0175 42.639 55.1895H39.4284L39.3997 55.2182ZM40.9764 38.1619C42.811 38.1619 44.6743 38.1619 46.5089 38.1619C46.7382 38.1619 46.8242 38.1046 46.9102 37.8753C47.1682 37.0726 47.4262 36.27 47.7129 35.496C48.2862 34.0627 48.6302 32.6007 48.5728 31.0528C48.5155 29.8488 47.9708 28.9028 46.9389 28.2722C45.8782 27.6129 44.7603 27.6415 43.6136 28.1002C41.8937 28.7882 40.145 28.7595 38.4251 28.1002C38.0238 27.9569 37.5651 27.8135 37.1351 27.7849C35.3005 27.5842 33.5232 29.1322 33.4372 30.9668C33.3799 32.1994 33.5519 33.432 33.9819 34.6073C34.3545 35.7253 34.8705 36.786 35.1285 37.9326C35.1858 38.1333 35.2718 38.1906 35.5012 38.1906C37.3358 38.1906 39.1704 38.1906 41.005 38.1906M44.8176 39.1652H37.2785V41.0285H44.8176V39.1652ZM42.9256 46.4464V44.5831C41.6643 44.4398 40.4317 44.2964 39.1704 44.1531V46.045C40.4317 46.1884 41.6643 46.3317 42.9256 46.4464ZM42.9256 50.2589C41.6643 50.1156 40.4317 49.9723 39.1704 49.8576V51.7209C40.4317 51.8642 41.6643 52.0076 42.9256 52.1509V50.2589ZM39.1704 48.883C40.4317 49.0263 41.6643 49.1696 42.9256 49.313V47.421C41.6643 47.2777 40.4317 47.1344 39.1704 46.991V48.883ZM42.9256 42.0032H39.1704V43.1785C40.4317 43.3218 41.6643 43.4651 42.9256 43.6084V42.0032ZM39.3137 52.6955C39.5144 53.2115 39.7151 53.6989 39.9157 54.1575C39.9157 54.2148 40.059 54.2722 40.1164 54.2722C40.747 54.2722 41.3777 54.2722 42.0083 54.2722C42.0657 54.2722 42.1517 54.2435 42.1803 54.1862C42.3523 53.8135 42.4957 53.4409 42.639 53.0395C41.521 52.9249 40.4317 52.7815 39.3137 52.6669" fill="#202B57"/>
<path d="M41 67C55.3594 67 67 55.3594 67 41C67 26.6406 55.3594 15 41 15C26.6406 15 15 26.6406 15 41C15 55.3594 26.6406 67 41 67Z" stroke="#202B57" stroke-width="0.716338" stroke-miterlimit="10"/>
</svg>
