<svg xmlns="http://www.w3.org/2000/svg" width="291" height="40" viewBox="0 0 291 40" fill="none"><g clip-path="url(#clip0_334_6353)"><path fill-rule="evenodd" clip-rule="evenodd" d="M61.5469 6.96973H62.7859V34.1514H61.5469V6.96973Z" fill="#202A5B"></path><path d="M70.8438 21.4755H75.5603C79.1597 21.4755 81.6041 19.2041 81.6041 15.883C81.6041 12.5619 79.1597 10.2905 75.5603 10.2905H70.8438V21.4797V21.4755ZM72.4439 20.0816V11.676H75.4679C78.2315 11.676 80.0081 13.3681 80.0081 15.8788C80.0081 18.3896 78.2357 20.0816 75.4679 20.0816H72.4439ZM85.6487 20.0816V16.4708H91.2599V15.1147H85.6487V11.676H91.9487V10.2863H84.0527V21.4755H92.1755V20.0858H85.6529L85.6487 20.0816ZM102.789 10.2863V18.6289L96.0731 10.2863H94.7627V21.4755H96.3587V13.1329L103.075 21.4755H104.385V10.2863H102.789ZM109.967 21.4755H111.55V11.676H115.389V10.2863H106.132V11.676H109.971V21.4755H109.967ZM122.025 21.6015C125.427 21.6015 127.96 19.1705 127.96 15.8788C127.96 12.5871 125.435 10.1561 122.025 10.1561C118.615 10.1561 116.061 12.6039 116.061 15.8788C116.061 19.1537 118.585 21.6015 122.025 21.6015ZM122.025 20.1824C119.513 20.1824 117.657 18.3602 117.657 15.883C117.657 13.4059 119.513 11.5837 122.025 11.5837C124.537 11.5837 126.355 13.4059 126.355 15.883C126.355 18.3602 124.499 20.1824 122.025 20.1824ZM135.427 21.6981C137.489 21.6981 139.153 20.9465 140.236 19.5904L138.22 17.7682C137.519 18.6163 136.654 19.0781 135.583 19.0781C133.743 19.0781 132.466 17.7976 132.466 15.8788C132.466 13.9601 133.747 12.6795 135.583 12.6795C136.654 12.6795 137.515 13.1413 138.22 13.9895L140.236 12.1673C139.148 10.8111 137.485 10.0596 135.427 10.0596C131.878 10.0596 129.274 12.4696 129.274 15.8788C129.274 19.2881 131.882 21.6981 135.427 21.6981ZM147.049 21.6981C150.627 21.6981 153.269 19.2377 153.269 15.8788C153.269 12.5199 150.631 10.0596 147.049 10.0596C143.466 10.0596 140.828 12.5199 140.828 15.8788C140.828 19.2377 143.466 21.6981 147.049 21.6981ZM147.049 19.0781C145.356 19.0781 144.025 17.8144 144.025 15.8788C144.025 13.9433 145.352 12.6795 147.049 12.6795C148.745 12.6795 150.073 13.9433 150.073 15.8788C150.073 17.8144 148.745 19.0781 147.049 19.0781ZM161.858 21.4755H165.247L162.836 17.9613C164.227 17.2895 165.029 16.0762 165.029 14.4261C165.029 11.8692 163.109 10.2863 160.056 10.2863H154.936V21.4755H158.103V18.5029H159.833L161.866 21.4755H161.862H161.858ZM161.82 14.4261C161.82 15.4506 161.165 16.0552 159.85 16.0552H158.09V12.7803H159.85C161.161 12.7803 161.82 13.3849 161.82 14.4261ZM173.685 21.4755H177.074L174.664 17.9613C176.054 17.2895 176.856 16.0762 176.856 14.4261C176.856 11.8692 174.937 10.2863 171.883 10.2863H166.763V21.4755H169.93V18.5029H171.661L173.693 21.4755H173.689H173.685ZM173.651 14.4261C173.651 15.4506 172.996 16.0552 171.682 16.0552H169.922V12.7803H171.682C172.992 12.7803 173.651 13.3849 173.651 14.4261ZM181.724 19.0278V16.9831H186.697V14.615H181.724V12.7299H187.369V10.2821H178.591V21.4713H187.579V19.0236H181.724V19.0278ZM194.899 21.6981C196.961 21.6981 198.625 20.9465 199.708 19.5904L197.692 17.7682C196.991 18.6163 196.126 19.0781 195.055 19.0781C193.215 19.0781 191.938 17.7976 191.938 15.8788C191.938 13.9601 193.219 12.6795 195.055 12.6795C196.126 12.6795 196.987 13.1413 197.692 13.9895L199.708 12.1673C198.62 10.8111 196.957 10.0596 194.899 10.0596C191.35 10.0596 188.746 12.4696 188.746 15.8788C188.746 19.2881 191.354 21.6981 194.899 21.6981ZM203.404 21.4755H206.571V12.7971H209.994V10.2863H199.969V12.7971H203.408V21.4755H203.404Z" fill="#202A5B"></path><path d="M132.806 31.9969C133.831 31.9969 134.717 31.6401 135.318 30.9599L134.709 30.3679C134.201 30.9053 133.579 31.1572 132.853 31.1572C131.37 31.1572 130.265 30.0824 130.265 28.6297C130.265 27.177 131.366 26.1021 132.853 26.1021C133.575 26.1021 134.201 26.3456 134.709 26.8831L135.318 26.2911C134.717 25.6109 133.835 25.2666 132.811 25.2666C130.807 25.2666 129.32 26.6857 129.32 28.6339C129.32 30.582 130.803 32.0011 132.802 32.0011V31.9927L132.806 31.9969ZM146.398 31.9256H150.904V31.1068H147.338V25.3422H146.398V31.9298V31.9256ZM161.723 31.9256H162.664V25.338H161.723V31.9256ZM179.099 25.338V30.2503L175.147 25.338H174.374V31.9256H175.315V27.0132L179.267 31.9256H180.04V25.338H179.099ZM191.745 31.9256H192.686V25.338H191.745V31.9256ZM207.34 31.9969C208.364 31.9969 209.251 31.6401 209.851 30.9599L209.242 30.3679C208.734 30.9053 208.112 31.1572 207.386 31.1572C205.903 31.1572 204.799 30.0824 204.799 28.6297C204.799 27.177 205.899 26.1021 207.386 26.1021C208.108 26.1021 208.734 26.3456 209.242 26.8831L209.851 26.2911C209.251 25.6109 208.369 25.2666 207.344 25.2666C205.34 25.2666 203.854 26.6857 203.854 28.6339C203.854 30.582 205.336 32.0011 207.335 32.0011V31.9927L207.34 31.9969Z" fill="#202A5B"></path><path fill-rule="evenodd" clip-rule="evenodd" d="M33.5796 5.87755C36.2382 8.33792 38.0316 11.2601 39.048 14.64C40.4382 19.2585 40.4928 23.8979 38.88 28.4702C36.9312 33.9871 33.1596 37.5181 27.2796 38.4502C25.0032 38.8113 22.6806 39.017 20.3748 39.0422C13.8732 39.122 7.37579 39.0716 0.878388 39.0716C0.731387 39.0716 0.571788 39.1094 0.445788 39.0632C0.277788 39.0044 0.143388 38.8785 -0.0078125 38.7819C0.130788 38.6686 0.256788 38.5006 0.412188 38.4586C1.10099 38.3033 1.81919 38.2529 2.48699 38.0388C4.19219 37.4972 5.23799 36.2628 5.51519 34.5371C5.75879 33.0257 5.85119 31.4722 5.85539 29.9397C5.88059 22.7727 5.86379 15.6099 5.82599 8.44289C5.82179 7.35125 5.70839 6.22603 5.46059 5.16798C5.00279 3.24503 3.62939 2.20378 1.74779 1.79651C1.30259 1.69995 0.840587 1.68735 0.395388 1.58658C0.244188 1.553 0.130788 1.36406 0.0005875 1.2465C0.130788 1.15413 0.265188 0.981986 0.399588 0.981986C1.17239 0.960993 1.94099 0.981986 2.71799 0.981986C7.94279 0.981986 13.1676 0.977788 18.3882 0.981986C20.9586 0.981986 23.5122 1.13733 26.0154 1.75453C26.3724 1.8427 26.7126 1.98545 27.1578 2.1366C26.3514 2.79158 25.6458 3.36259 24.8688 3.98818C20.9166 1.44383 16.4352 1.79232 11.9454 1.80491C11.9244 2.01484 11.8908 2.19118 11.8908 2.36752C11.8908 11.9571 11.8824 21.5425 11.9202 31.1363C11.9202 32.2489 12.0966 33.3909 12.3948 34.4616C12.9828 36.5567 14.5242 37.7575 16.5864 38.1437C20.2362 38.8281 23.7642 38.467 26.8722 36.2334C29.1318 34.6085 30.6228 32.3329 31.698 29.8011C33.0756 26.5556 33.5166 23.159 33.3108 19.6489C33.1218 16.4622 32.328 13.4476 30.8874 10.601C30.8034 10.4414 30.7614 10.1853 30.8286 10.0384C31.5174 8.53106 32.4456 7.17071 33.5838 5.87755L33.5754 5.88594L33.5796 5.87755Z" fill="#202A5B"></path><path fill-rule="evenodd" clip-rule="evenodd" d="M52.5758 0.873008C53.042 0.860412 53.2016 1.01996 53.21 1.46081C53.2478 3.2788 53.3276 5.0884 53.3864 6.89799C53.4494 8.77896 53.5124 10.6515 53.5544 12.5325C53.5544 12.7676 53.4746 13.1581 53.3444 13.2001C52.916 13.347 52.874 12.9104 52.7648 12.6375C51.9794 10.7565 51.3452 8.79995 50.375 7.02395C48.9596 4.42082 46.9184 2.34671 44.0204 1.37684C39.7616 -0.0548815 35.024 1.38104 32.1218 4.79869C29.2448 8.18696 27.6404 12.0875 27.1532 16.4708C26.7038 20.577 26.8802 24.6329 28.2284 28.5795C28.4594 29.2471 28.7786 29.8895 29.0264 30.5529C29.0852 30.7124 29.0852 30.9517 29.0054 31.1029C28.2872 32.4548 26.897 34.0041 25.5908 34.9152C25.259 34.5457 24.902 34.1721 24.5786 33.7774C22.1384 30.8132 20.8532 27.3955 20.3996 23.6C20.0594 20.724 20.1938 17.8815 20.849 15.0978C22.2896 8.98049 25.6118 4.33265 31.5674 1.83868C34.73 0.511929 38.0144 -0.147251 41.4416 0.0290904C43.8104 0.15085 46.07 0.801632 48.3044 1.56578C48.9134 1.77571 49.5308 1.97724 50.144 2.16198C51.3326 2.51466 51.845 2.28374 52.4162 1.15431C52.4666 1.06194 52.517 0.973774 52.58 0.86461H52.5758V0.873008Z" fill="#202A5B"></path><path fill-rule="evenodd" clip-rule="evenodd" d="M54.0673 27.9458C53.6767 31.0359 52.8451 33.9246 50.5603 36.1876C48.6913 38.0392 46.3687 39.0594 43.8361 39.5675C40.0855 40.3148 36.3685 40.0839 32.7061 39.0048C32.5675 38.9671 32.4415 38.8957 32.3281 38.8537C33.2017 38.2827 34.0669 37.6949 34.9489 37.1533C35.1169 37.0525 35.4193 37.0567 35.6125 37.1323C39.4051 38.6102 43.2145 38.6732 47.0239 37.2162C49.9891 36.0784 51.7447 33.828 52.6981 30.8806C52.9711 30.0325 53.1769 29.1591 53.3953 28.29C53.4793 27.9499 53.6053 27.7526 54.0673 27.9542H54.0589L54.0673 27.9458Z" fill="#202A5B"></path></g><defs><clipPath id="clip0_334_6353"><rect width="210" height="40" fill="white"></rect></clipPath></defs></svg>