<svg width="300" height="65" viewBox="0 0 300 65" fill="none" xmlns="http://www.w3.org/2000/svg">
<path fill-rule="evenodd" clip-rule="evenodd" d="M87.7139 11.2998H89.4794V55.3734H87.7139V11.2998Z" fill="#202A5B"/>
<path d="M100.964 34.8199H107.685C112.814 34.8199 116.297 31.1369 116.297 25.752C116.297 20.367 112.814 16.684 107.685 16.684H100.964V34.8267V34.8199ZM103.244 32.5597V18.9306H107.553C111.491 18.9306 114.023 21.6741 114.023 25.7452C114.023 29.8162 111.497 32.5597 107.553 32.5597H103.244ZM122.061 32.5597V26.705H130.056V24.5061H122.061V18.9306H131.038V16.6772H119.786V34.8199H131.361V32.5665H122.067L122.061 32.5597ZM146.485 16.6772V30.2042L136.915 16.6772H135.048V34.8199H137.322V21.2929L146.892 34.8199H148.759V16.6772H146.485ZM156.713 34.8199H158.97V18.9306H164.44V16.6772H151.249V18.9306H156.719V34.8199H156.713ZM173.896 35.0242C178.744 35.0242 182.353 31.0825 182.353 25.7452C182.353 20.4079 178.756 16.4662 173.896 16.4662C169.036 16.4662 165.397 20.4351 165.397 25.7452C165.397 31.0552 168.994 35.0242 173.896 35.0242ZM173.896 32.7231C170.317 32.7231 167.672 29.7686 167.672 25.752C167.672 21.7354 170.317 18.7808 173.896 18.7808C177.475 18.7808 180.066 21.7354 180.066 25.752C180.066 29.7686 177.421 32.7231 173.896 32.7231ZM192.994 35.1807C195.932 35.1807 198.302 33.9621 199.846 31.7632L196.974 28.8087C195.974 30.1838 194.741 30.9327 193.215 30.9327C190.594 30.9327 188.774 28.8563 188.774 25.7452C188.774 22.634 190.6 20.5576 193.215 20.5576C194.741 20.5576 195.968 21.3065 196.974 22.6817L199.846 19.7271C198.296 17.5282 195.926 16.3096 192.994 16.3096C187.936 16.3096 184.226 20.2172 184.226 25.7452C184.226 31.2731 187.942 35.1807 192.994 35.1807ZM209.554 35.1807C214.653 35.1807 218.418 31.1914 218.418 25.7452C218.418 20.2989 214.659 16.3096 209.554 16.3096C204.449 16.3096 200.69 20.2989 200.69 25.7452C200.69 31.1914 204.449 35.1807 209.554 35.1807ZM209.554 30.9327C207.142 30.9327 205.245 28.8835 205.245 25.7452C205.245 22.6068 207.136 20.5576 209.554 20.5576C211.972 20.5576 213.863 22.6068 213.863 25.7452C213.863 28.8835 211.972 30.9327 209.554 30.9327ZM230.657 34.8199H235.486L232.051 29.1218C234.032 28.0326 235.175 26.0651 235.175 23.3897C235.175 19.2437 232.44 16.6772 228.089 16.6772H220.794V34.8199H225.306V30H227.772L230.669 34.8199H230.663H230.657ZM230.603 23.3897C230.603 25.0508 229.669 26.0311 227.796 26.0311H225.288V20.721H227.796C229.663 20.721 230.603 21.7013 230.603 23.3897ZM247.51 34.8199H252.34L248.905 29.1218C250.886 28.0326 252.029 26.0651 252.029 23.3897C252.029 19.2437 249.294 16.6772 244.943 16.6772H237.647V34.8199H242.16V30H244.625L247.522 34.8199H247.516H247.51ZM247.462 23.3897C247.462 25.0508 246.529 26.0311 244.655 26.0311H242.148V20.721H244.655C246.523 20.721 247.462 21.7013 247.462 23.3897ZM258.965 30.851V27.5356H266.051V23.696H258.965V20.6393H267.009V16.6704H254.501V34.8131H267.308V30.8442H258.965V30.851ZM277.74 35.1807C280.678 35.1807 283.048 33.9621 284.593 31.7632L281.72 28.8087C280.72 30.1838 279.487 30.9327 277.961 30.9327C275.34 30.9327 273.521 28.8563 273.521 25.7452C273.521 22.634 275.346 20.5576 277.961 20.5576C279.487 20.5576 280.714 21.3065 281.72 22.6817L284.593 19.7271C283.042 17.5282 280.672 16.3096 277.74 16.3096C272.683 16.3096 268.972 20.2172 268.972 25.7452C268.972 31.2731 272.689 35.1807 277.74 35.1807ZM289.859 34.8199H294.372V20.7482H299.25V16.6772H284.964V20.7482H289.865V34.8199H289.859Z" fill="#202A5B"/>
<path d="M189.254 51.8797C190.714 51.8797 191.977 51.301 192.833 50.1981L191.965 49.2382C191.241 50.1096 190.355 50.5181 189.319 50.5181C187.207 50.5181 185.633 48.7753 185.633 46.4198C185.633 44.0643 187.201 42.3215 189.319 42.3215C190.349 42.3215 191.241 42.7164 191.965 43.5878L192.833 42.6279C191.977 41.525 190.72 40.9668 189.26 40.9668C186.405 40.9668 184.286 43.2678 184.286 46.4266C184.286 49.5854 186.399 51.8865 189.248 51.8865V51.8729L189.254 51.8797ZM208.621 51.7639H215.043V50.4364H209.961V41.0893H208.621V51.7707V51.7639ZM230.46 51.7639H231.8V41.0825H230.46V51.7639ZM255.219 41.0825V49.0476L249.587 41.0825H248.486V51.7639H249.827V43.7988L255.459 51.7639H256.56V41.0825H255.219ZM273.24 51.7639H274.58V41.0825H273.24V51.7639ZM295.462 51.8797C296.922 51.8797 298.185 51.301 299.041 50.1981L298.173 49.2382C297.449 50.1096 296.563 50.5181 295.527 50.5181C293.415 50.5181 291.841 48.7753 291.841 46.4198C291.841 44.0643 293.409 42.3215 295.527 42.3215C296.557 42.3215 297.449 42.7164 298.173 43.5878L299.041 42.6279C298.185 41.525 296.928 40.9668 295.468 40.9668C292.613 40.9668 290.494 43.2678 290.494 46.4266C290.494 49.5854 292.607 51.8865 295.456 51.8865V51.8729L295.462 51.8797Z" fill="#202A5B"/>
<path fill-rule="evenodd" clip-rule="evenodd" d="M47.8613 9.52819C51.6497 13.5176 54.2052 18.2558 55.6536 23.736C57.6346 31.2246 57.7124 38.7472 55.4142 46.1609C52.6372 55.1063 47.2628 60.8316 38.8839 62.3429C35.6401 62.9284 32.3304 63.262 29.0447 63.3028C19.7801 63.4322 10.5215 63.3505 1.26281 63.3505C1.05334 63.3505 0.825916 63.4118 0.646369 63.3369C0.406973 63.2416 0.215456 63.0373 0 62.8808C0.197502 62.697 0.377049 62.4246 0.59849 62.3566C1.58001 62.1047 2.60343 62.023 3.55503 61.6758C5.9849 60.7976 7.47514 58.7961 7.87014 55.9981C8.21727 53.5473 8.34894 51.0284 8.35492 48.5436C8.39083 36.9227 8.36689 25.3086 8.31303 13.6877C8.30704 11.9177 8.14545 10.0932 7.79234 8.37768C7.13999 5.25972 5.18292 3.57139 2.50169 2.91103C1.86729 2.75445 1.20895 2.73403 0.57455 2.57064C0.359094 2.51618 0.197502 2.20983 0.0119698 2.01921C0.197502 1.86944 0.389019 1.59032 0.580535 1.59032C1.68176 1.55628 2.77699 1.59032 3.8842 1.59032C11.3294 1.59032 18.7746 1.58352 26.2139 1.59032C29.8766 1.59032 33.5154 1.84221 37.0824 2.84296C37.5912 2.98592 38.0759 3.21738 38.7103 3.46246C37.5612 4.52448 36.5558 5.45033 35.4486 6.46469C29.8168 2.33918 23.4309 2.90423 17.033 2.92465C17.0031 3.26504 16.9552 3.55096 16.9552 3.83689C16.9552 19.3859 16.9433 34.928 16.9971 50.4838C16.9971 52.2879 17.2485 54.1396 17.6734 55.8756C18.5113 59.2726 20.7078 61.2197 23.6463 61.846C28.8472 62.9556 33.8745 62.3702 38.3034 58.7484C41.5232 56.1138 43.6479 52.424 45.18 48.3189C47.1431 43.0565 47.7715 37.549 47.4782 31.8577C47.2089 26.6906 46.0778 21.8026 44.0249 17.1869C43.9052 16.9283 43.8454 16.513 43.9411 16.2747C44.9227 13.8307 46.2453 11.625 47.8672 9.52819L47.8553 9.54181L47.8613 9.52819Z" fill="#202A5B"/>
<path fill-rule="evenodd" clip-rule="evenodd" d="M74.9303 1.41395C75.5946 1.39353 75.822 1.65222 75.834 2.36704C75.8878 5.31481 76.0016 8.24896 76.0853 11.1831C76.1751 14.233 76.2649 17.2693 76.3247 20.3191C76.3247 20.7004 76.211 21.3335 76.0255 21.4016C75.415 21.6399 75.3552 20.9318 75.1996 20.4893C74.0804 17.4395 73.1767 14.267 71.7942 11.3873C69.7773 7.16652 66.8686 3.80348 62.739 2.23088C56.6703 -0.0905707 49.9194 2.23769 45.7838 7.77922C41.6841 13.2731 39.3979 19.5975 38.7037 26.7048C38.0633 33.3629 38.3146 39.9392 40.2358 46.3385C40.565 47.4209 41.0198 48.4625 41.3729 49.5381C41.4567 49.7968 41.4567 50.1849 41.343 50.43C40.3196 52.6221 38.3386 55.1341 36.4773 56.6114C36.0045 56.0123 35.4957 55.4064 35.0349 54.7665C31.5577 49.9602 29.7263 44.4187 29.0799 38.2645C28.5952 33.6011 28.7867 28.9923 29.7203 24.4787C31.7731 14.5598 36.5072 7.02356 44.9938 2.97974C49.5004 0.82848 54.1806 -0.240342 59.0643 0.045585C62.4398 0.243011 65.6596 1.29822 68.8436 2.53723C69.7114 2.87762 70.5912 3.20439 71.465 3.50394C73.1587 4.07579 73.8889 3.70136 74.7028 1.87007C74.7746 1.7203 74.8465 1.57734 74.9362 1.40033H74.9303V1.41395Z" fill="#202A5B"/>
<path fill-rule="evenodd" clip-rule="evenodd" d="M77.056 45.3112C76.4994 50.3218 75.3144 55.0055 72.0586 58.6749C69.3953 61.6771 66.0856 63.3314 62.4767 64.1552C57.1322 65.367 51.8356 64.9925 46.6168 63.2429C46.4193 63.1817 46.2397 63.0659 46.0781 62.9979C47.323 62.072 48.5559 61.1189 49.8127 60.2407C50.0521 60.0773 50.483 60.0841 50.7583 60.2067C56.1627 62.603 61.591 62.7051 67.0193 60.3428C71.2446 58.4979 73.7463 54.8489 75.1049 50.0699C75.4939 48.6947 75.7872 47.2787 76.0984 45.8695C76.2181 45.3181 76.3976 44.9981 77.056 45.3249H77.044L77.056 45.3112Z" fill="#202A5B"/>
</svg>
