<svg width="82" height="82" viewBox="0 0 82 82" fill="none" xmlns="http://www.w3.org/2000/svg">
<rect width="82" height="82" rx="12" fill="#EDF0FF"/>
<path d="M41 67C55.3594 67 67 55.3594 67 41C67 26.6406 55.3594 15 41 15C26.6406 15 15 26.6406 15 41C15 55.3594 26.6406 67 41 67Z" stroke="#202B57" stroke-width="0.716338" stroke-miterlimit="10"/>
<path d="M50.4976 40.3994C50.469 40.686 50.4116 40.944 50.383 41.2307C50.3543 41.5173 50.1823 41.718 49.9243 41.718C49.6376 41.718 49.4656 41.546 49.437 41.2307C49.3223 39.654 48.3477 38.7081 46.7997 38.5934C46.4844 38.5934 46.2838 38.3927 46.2838 38.1061C46.2838 37.8194 46.4844 37.6474 46.8284 37.6188C47.6597 37.5614 48.3764 37.2461 48.921 36.5581C48.2044 35.8701 47.373 35.4115 46.427 35.1535C45.3377 34.8668 44.2771 34.9528 43.2165 35.2968C41.7545 35.7841 40.2639 35.7841 38.8019 35.2968C35.5627 34.2648 32.2948 36.0708 31.5208 39.3674C31.4921 39.5107 31.4634 39.6827 31.4348 39.826C31.3774 40.1414 31.1768 40.3134 30.8615 40.2847C30.6035 40.256 30.4315 40.0267 30.4601 39.7114C30.5461 38.8801 30.8328 38.1061 31.2341 37.3608C32.7534 34.6948 35.9067 33.4049 38.8592 34.3222C39.7479 34.5802 40.6079 34.8668 41.5538 34.6948C42.2132 34.5802 42.8725 34.3795 43.5318 34.2075C45.5958 33.7489 47.459 34.1788 49.1217 35.4688C49.179 35.5261 49.2363 35.5548 49.351 35.6408C49.351 35.4115 49.4083 35.2108 49.437 35.0102C49.437 34.6948 49.6376 34.5228 49.9243 34.5228C50.211 34.5228 50.383 34.7235 50.4117 35.0388C50.4977 36.3288 51.243 37.2748 52.4183 37.5614C52.6189 37.6188 52.8196 37.6188 53.0489 37.6474C53.3642 37.6761 53.5362 37.8481 53.5362 38.1347C53.5362 38.3927 53.3356 38.5934 53.0489 38.5934C52.5616 38.5934 52.0743 38.7367 51.6443 38.9947C51.5009 39.0807 51.4436 39.1954 51.4723 39.3674C51.8449 41.3453 51.3863 43.1513 50.125 44.7279C49.1217 45.9892 48.6344 47.4512 48.3477 49.0278C48.0897 50.4611 47.7743 51.8944 47.459 53.3277C47.1437 54.7037 45.9398 55.2483 45.0224 55.2483C43.8185 55.2483 42.9011 54.4457 42.5858 53.2417C42.5285 52.9837 42.4425 52.697 42.3852 52.439C42.3279 52.1237 42.4712 51.8657 42.7292 51.8084C42.9872 51.7511 43.2165 51.8944 43.3025 52.2097C43.3885 52.525 43.4458 52.8117 43.5318 53.0984C43.7325 53.815 44.2771 54.2737 44.9938 54.2737C45.7391 54.2737 46.3124 53.8723 46.4844 53.1557C46.7997 51.8371 47.0577 50.4898 47.3444 49.1711C47.6024 47.7952 47.889 46.4192 48.663 45.2152C48.921 44.8139 49.179 44.4412 49.4657 44.0686C50.2683 43.0366 50.6409 41.89 50.6409 40.5713C50.6409 40.514 50.6409 40.4853 50.6409 40.428C50.6123 40.428 50.5836 40.428 50.5549 40.428M48.749 38.1061C49.1503 38.5074 49.5803 38.9374 49.9816 39.3387C50.1536 39.138 50.3256 38.9087 50.5263 38.6794C50.727 38.4787 50.9849 38.2781 51.1856 38.1061C51.1569 38.1347 51.0996 38.1921 51.071 38.2207C50.641 37.7907 50.211 37.3894 49.8383 37.0168C49.5516 37.3034 49.1217 37.7334 48.749 38.1061Z" fill="#202B57"/>
<path d="M42.8592 50.3459C42.8306 50.6326 42.6872 50.8046 42.4292 50.8332C42.1713 50.8619 41.9993 50.7472 41.9133 50.5179C41.8273 50.2599 41.7986 50.0019 41.7126 49.7726C41.5693 49.3139 41.3399 49.1419 40.9386 49.1706C40.566 49.1706 40.3653 49.3999 40.2507 49.8013C39.964 50.9479 39.706 52.0659 39.4193 53.2125C39.104 54.4165 38.072 55.2191 36.8681 55.1905C35.6927 55.1618 34.7181 54.3018 34.4888 53.0978C34.1448 51.3779 33.7721 49.6579 33.4281 47.938C33.1702 46.7627 32.6828 45.7307 31.9375 44.7847C31.7082 44.4694 31.4789 44.1541 31.2782 43.8101C31.1349 43.5807 31.2209 43.3228 31.4215 43.1794C31.6222 43.0361 31.9089 43.0648 32.0522 43.2654C32.5968 44.0681 33.1702 44.8421 33.6288 45.6734C34.2308 46.734 34.4315 47.9093 34.6608 49.0846C34.9188 50.3746 35.1768 51.6645 35.4634 52.9545C35.6068 53.6998 36.2374 54.1871 36.954 54.2158C37.6707 54.2158 38.3013 53.7572 38.4733 53.0118C38.76 51.8652 39.0467 50.7472 39.3047 49.6006C39.534 48.712 40.1646 48.1673 40.996 48.196C41.8273 48.196 42.4579 48.7406 42.6586 49.6006C42.7159 49.8586 42.7732 50.1166 42.8306 50.3459" fill="#202B57"/>
<path d="M41.2598 38.2202C39.3678 38.1628 37.8485 37.7615 36.4439 36.9875C36.1572 36.8442 36.0712 36.5862 36.2146 36.3282C36.3579 36.0702 36.6159 35.9842 36.9026 36.1276C38.0779 36.7582 39.3105 37.1309 40.6578 37.1882C42.1484 37.2742 43.5244 36.9015 44.8717 36.2709C44.9577 36.2136 45.0437 36.1849 45.1297 36.1276C45.445 35.9842 45.6743 36.0416 45.8177 36.2996C45.961 36.5576 45.875 36.8155 45.5883 36.9875C44.757 37.4462 43.897 37.7902 42.9797 37.9622C42.3204 38.0768 41.6611 38.1628 41.2598 38.2202Z" fill="#202B57"/>
<path d="M53.5875 48.1379C53.5875 48.5679 53.2148 48.8259 52.8995 48.6539C52.4409 48.4246 52.0109 48.1666 51.5809 47.8799C51.3516 47.7366 51.3229 47.4499 51.4376 47.2493C51.5522 47.0199 51.8102 46.934 52.0682 47.0486C52.5269 47.2779 52.9569 47.5359 53.3869 47.8226C53.5015 47.9086 53.5588 48.0806 53.6162 48.1379" fill="#202B57"/>
<path d="M53.5728 34.3504C53.5728 34.3504 53.4295 34.5798 53.3149 34.6658C52.9135 34.9238 52.5122 35.1531 52.0822 35.3824C51.8242 35.5258 51.5376 35.4398 51.3942 35.2104C51.2509 34.9811 51.3369 34.6944 51.5949 34.5511C51.9962 34.3218 52.3976 34.0638 52.8275 33.8345C53.1715 33.6338 53.5728 33.8345 53.5728 34.3504Z" fill="#202B57"/>
<path d="M30.6403 34.8953C30.6403 35.3253 30.2963 35.5833 29.981 35.4113C29.5223 35.182 29.0636 34.924 28.6337 34.6373C28.4043 34.494 28.3756 34.2647 28.4903 34.0354C28.605 33.806 28.863 33.6914 29.0923 33.8347C29.551 34.064 30.0096 34.3507 30.4396 34.6087C30.5543 34.666 30.6116 34.838 30.6403 34.8953Z" fill="#202B57"/>
<path d="M28.8056 48.7691C28.8056 48.7691 28.4903 48.5111 28.4616 48.3391C28.4329 48.1958 28.5189 47.9378 28.6336 47.8518C29.0636 47.5652 29.5222 47.3072 29.9809 47.0778C30.2102 46.9632 30.4395 47.0205 30.5829 47.2498C30.7262 47.4792 30.6975 47.7372 30.4969 47.8805C30.0382 48.1671 29.5796 48.4251 29.0923 48.6831C29.0349 48.7118 28.9489 48.6831 28.8916 48.7118L28.8342 48.7691H28.8056Z" fill="#202B57"/>
<path d="M35.2936 30.4798C35.2936 30.4798 35.0643 30.7665 34.8923 30.8525C34.6916 30.9385 34.491 30.8525 34.3763 30.6805C34.1183 30.2505 33.8316 29.7918 33.6023 29.3332C33.4877 29.1038 33.5737 28.8745 33.803 28.7312C34.0323 28.5879 34.2616 28.6165 34.405 28.8172C34.7203 29.2758 34.9783 29.7632 35.265 30.2505C35.265 30.2791 35.265 30.3365 35.265 30.3938C35.265 30.3938 35.2936 30.4225 35.3223 30.4511" fill="#202B57"/>
<path d="M48.4804 29.1892C48.4804 29.1892 48.4804 29.3038 48.423 29.3612C48.165 29.7911 47.9357 30.2498 47.6491 30.6798C47.5058 30.9091 47.2191 30.9378 47.0184 30.8231C46.7891 30.7085 46.7031 30.4218 46.8464 30.1925C47.0758 29.7338 47.3337 29.3038 47.6204 28.8738C47.7064 28.7592 47.9644 28.6732 48.1364 28.7018C48.3657 28.7018 48.4804 28.9312 48.4804 29.1892Z" fill="#202B57"/>
<path d="M40.5391 28.0149C40.5391 27.7569 40.5391 27.5275 40.5391 27.2695C40.5391 26.9829 40.7397 26.7822 40.9977 26.7822C41.2844 26.7822 41.485 26.9542 41.485 27.2695C41.485 27.7569 41.485 28.2155 41.485 28.7028C41.485 28.9895 41.2844 29.1902 40.9977 29.1902C40.7397 29.1902 40.5391 28.9895 40.5391 28.7028C40.5391 28.4735 40.5391 28.2442 40.5391 28.0149Z" fill="#202B57"/>
<path d="M27.7528 41.7165C27.5235 41.7165 27.2941 41.7165 27.0648 41.7165C26.7495 41.7165 26.5775 41.5158 26.5488 41.2578C26.5488 40.9712 26.7495 40.7705 27.0361 40.7705C27.5235 40.7705 27.9821 40.7705 28.4694 40.7705C28.7561 40.7705 28.9281 40.9712 28.9568 41.2292C28.9568 41.5158 28.7561 41.7165 28.4694 41.7165C28.2401 41.7165 27.9821 41.7165 27.7528 41.7165Z" fill="#202B57"/>
<path d="M54.2358 41.7178C54.0065 41.7178 53.7485 41.7178 53.5192 41.7178C53.2325 41.7178 53.0605 41.5171 53.0605 41.2305C53.0605 40.9725 53.2325 40.7432 53.5192 40.7432C54.0065 40.7432 54.4938 40.7432 54.9812 40.7432C55.2678 40.7432 55.4398 40.9438 55.4398 41.2305C55.4398 41.4885 55.2678 41.6891 54.9812 41.7178C54.7232 41.7178 54.4938 41.7178 54.2358 41.7178Z" fill="black"/>
</svg>
